<svg xmlns="http://www.w3.org/2000/svg" xmlns:xlink="http://www.w3.org/1999/xlink" width="500" zoomAndPan="magnify" viewBox="0 0 375 374.999991" height="500" preserveAspectRatio="xMidYMid meet" version="1.0"><defs><clipPath id="ffaeb15899"><path d="M 112.5 122.53125 L 262.5 122.53125 L 262.5 252.28125 L 112.5 252.28125 Z M 112.5 122.53125 " clip-rule="nonzero"/></clipPath></defs><rect x="-37.5" width="450" fill="#ffffff" y="-37.499999" height="449.999989" fill-opacity="1"/><rect x="-37.5" width="450" fill="#ffffff" y="-37.499999" height="449.999989" fill-opacity="1"/><g clip-path="url(#ffaeb15899)"><path fill="#ceb15a" d="M 132.804688 220.871094 C 137.875 236.195312 151.285156 247.394531 167.320312 249.570312 C 176.621094 250.832031 186.085938 248.976562 194.183594 244.332031 C 200.796875 249.585938 209.003906 252.464844 217.484375 252.464844 C 238.152344 252.464844 254.964844 235.652344 254.964844 214.984375 C 254.964844 213.613281 254.898438 212.277344 254.761719 210.992188 C 259.734375 205.121094 262.460938 197.710938 262.460938 189.996094 C 262.460938 177.804688 255.550781 166.617188 244.730469 161.085938 C 242.734375 139.347656 224.460938 122.527344 202.492188 122.527344 C 186.195312 122.527344 171.503906 131.75 164.382812 146.234375 C 162.191406 145.433594 159.855469 145.019531 157.511719 145.019531 C 147.230469 145.019531 138.734375 152.820312 137.640625 162.917969 C 123.183594 165.261719 112.535156 177.621094 112.535156 192.496094 C 112.535156 205.292969 120.804688 216.769531 132.800781 220.867188 Z M 140.246094 167.621094 C 141.535156 167.503906 142.519531 166.300781 142.519531 165.007812 C 142.519531 156.738281 149.242188 150.015625 157.511719 150.015625 C 159.9375 150.015625 162.34375 150.609375 164.472656 151.726562 C 165.089844 152.050781 165.816406 152.097656 166.476562 151.871094 C 167.136719 151.632812 167.667969 151.128906 167.9375 150.484375 C 173.796875 136.539062 187.359375 127.527344 202.492188 127.527344 C 222.3125 127.527344 238.71875 143.042969 239.851562 162.851562 C 239.90625 163.777344 240.46875 164.601562 241.3125 164.984375 C 251.125 169.445312 257.464844 179.261719 257.464844 190 C 257.464844 196.855469 254.917969 203.429688 250.292969 208.507812 C 249.792969 209.058594 249.5625 209.804688 249.667969 210.542969 C 249.871094 211.953125 249.96875 213.40625 249.96875 214.984375 C 249.96875 232.894531 235.394531 247.46875 217.484375 247.46875 C 209.597656 247.46875 201.996094 244.601562 196.070312 239.394531 C 195.597656 238.984375 195.011719 238.773438 194.417969 238.773438 C 193.953125 238.773438 193.492188 238.898438 193.082031 239.160156 C 185.644531 243.871094 176.734375 245.808594 167.996094 244.617188 C 153.457031 242.648438 141.371094 232.269531 137.195312 218.171875 C 136.953125 217.359375 136.316406 216.722656 135.496094 216.484375 C 124.921875 213.40625 117.535156 203.539062 117.535156 192.496094 C 117.535156 179.492188 127.300781 168.800781 140.25 167.621094 Z M 140.246094 167.621094 " fill-opacity="1" fill-rule="nonzero"/></g><path fill="#ceb15a" d="M 149.445312 194.929688 C 153.230469 195.816406 157.515625 196.824219 157.515625 198.746094 C 157.515625 200.515625 154.308594 202.492188 150.019531 202.492188 C 145.050781 202.492188 141.628906 199.945312 141.550781 199.890625 C 140.464844 199.050781 138.902344 199.246094 138.054688 200.328125 C 137.203125 201.417969 137.398438 202.988281 138.484375 203.835938 C 138.675781 203.988281 143.234375 207.492188 150.019531 207.492188 C 157.023438 207.492188 162.511719 203.648438 162.511719 198.746094 C 162.511719 192.859375 155.898438 191.308594 150.589844 190.0625 C 146.808594 189.179688 142.523438 188.171875 142.523438 186.25 C 142.523438 184.480469 145.726562 182.503906 150.019531 182.503906 C 155.015625 182.503906 158.453125 185.078125 158.472656 185.097656 C 159.570312 185.945312 161.132812 185.75 161.980469 184.667969 C 162.832031 183.578125 162.640625 182.007812 161.550781 181.15625 C 161.359375 181.007812 156.800781 177.503906 150.019531 177.503906 C 143.011719 177.503906 137.523438 181.34375 137.523438 186.25 C 137.523438 192.136719 144.136719 193.6875 149.445312 194.929688 Z M 149.445312 194.929688 " fill-opacity="1" fill-rule="nonzero"/><path fill="#ceb15a" d="M 229.40625 194.929688 C 233.191406 195.816406 237.476562 196.824219 237.476562 198.746094 C 237.476562 200.515625 234.269531 202.492188 229.980469 202.492188 C 225.011719 202.492188 221.589844 199.945312 221.511719 199.890625 C 220.425781 199.050781 218.863281 199.246094 218.015625 200.328125 C 217.164062 201.417969 217.359375 202.988281 218.445312 203.835938 C 218.636719 203.988281 223.199219 207.492188 229.980469 207.492188 C 236.984375 207.492188 242.472656 203.648438 242.472656 198.746094 C 242.472656 192.859375 235.863281 191.308594 230.550781 190.0625 C 226.769531 189.179688 222.484375 188.171875 222.484375 186.25 C 222.484375 184.480469 225.6875 182.503906 229.980469 182.503906 C 234.976562 182.503906 238.414062 185.078125 238.433594 185.097656 C 239.53125 185.945312 241.089844 185.75 241.945312 184.667969 C 242.792969 183.578125 242.601562 182.007812 241.515625 181.15625 C 241.320312 181.007812 236.761719 177.503906 229.980469 177.503906 C 222.972656 177.503906 217.484375 181.34375 217.484375 186.25 C 217.484375 192.136719 224.097656 193.6875 229.40625 194.929688 Z M 229.40625 194.929688 " fill-opacity="1" fill-rule="nonzero"/><path fill="#ceb15a" d="M 177.503906 207.492188 C 179.417969 207.492188 181.191406 206.921875 182.710938 205.984375 C 183.097656 206.871094 183.972656 207.492188 185 207.492188 C 186.382812 207.492188 187.5 206.375 187.5 204.992188 L 187.5 190 C 187.5 188.617188 186.382812 187.5 185 187.5 C 183.972656 187.5 183.097656 188.121094 182.710938 189.003906 C 181.191406 188.066406 179.417969 187.5 177.503906 187.5 C 171.992188 187.5 167.507812 191.984375 167.507812 197.496094 C 167.507812 203.007812 171.992188 207.492188 177.503906 207.492188 Z M 177.503906 192.496094 C 180.261719 192.496094 182.503906 194.738281 182.503906 197.496094 C 182.503906 200.25 180.261719 202.492188 177.503906 202.492188 C 174.75 202.492188 172.507812 200.25 172.507812 197.496094 C 172.507812 194.738281 174.75 192.496094 177.503906 192.496094 Z M 177.503906 192.496094 " fill-opacity="1" fill-rule="nonzero"/><path fill="#ceb15a" d="M 202.492188 207.492188 C 204.40625 207.492188 206.179688 206.921875 207.699219 205.984375 C 208.085938 206.871094 208.960938 207.492188 209.988281 207.492188 C 211.371094 207.492188 212.488281 206.375 212.488281 204.992188 L 212.488281 190 C 212.488281 188.617188 211.371094 187.5 209.988281 187.5 C 208.960938 187.5 208.085938 188.121094 207.699219 189.003906 C 206.179688 188.066406 204.40625 187.5 202.492188 187.5 C 196.980469 187.5 192.496094 191.984375 192.496094 197.496094 C 192.496094 203.007812 196.980469 207.492188 202.492188 207.492188 Z M 202.492188 192.496094 C 205.25 192.496094 207.492188 194.738281 207.492188 197.496094 C 207.492188 200.25 205.25 202.492188 202.492188 202.492188 C 199.738281 202.492188 197.496094 200.25 197.496094 197.496094 C 197.496094 194.738281 199.738281 192.496094 202.492188 192.496094 Z M 202.492188 192.496094 " fill-opacity="1" fill-rule="nonzero"/></svg>