<svg xmlns="http://www.w3.org/2000/svg" xmlns:xlink="http://www.w3.org/1999/xlink" width="500" zoomAndPan="magnify" viewBox="0 0 375 374.999991" height="500" preserveAspectRatio="xMidYMid meet" version="1.0"><defs><clipPath id="d86ab5779d"><path d="M 118.78125 112.5 L 256.03125 112.5 L 256.03125 262.5 L 118.78125 262.5 Z M 118.78125 112.5 " clip-rule="nonzero"/></clipPath></defs><rect x="-37.5" width="450" fill="#ffffff" y="-37.499999" height="449.999989" fill-opacity="1"/><rect x="-37.5" width="450" fill="#ffffff" y="-37.499999" height="449.999989" fill-opacity="1"/><g clip-path="url(#d86ab5779d)"><path fill="#ceb15a" d="M 219.882812 179.222656 C 223.890625 180.175781 227.71875 181.765625 231.226562 183.925781 L 237.601562 181.09375 C 238.214844 180.824219 238.894531 180.949219 239.371094 181.421875 L 246.515625 188.570312 C 246.992188 189.042969 247.117188 189.726562 246.84375 190.335938 L 244.015625 196.710938 C 246.175781 200.21875 247.765625 204.050781 248.71875 208.058594 L 255.222656 210.5625 C 255.847656 210.800781 256.238281 211.375 256.238281 212.042969 L 256.238281 222.148438 C 256.238281 222.820312 255.847656 223.390625 255.222656 223.632812 L 248.714844 226.136719 C 247.761719 230.144531 246.171875 233.972656 244.011719 237.480469 L 246.84375 243.855469 C 247.117188 244.46875 246.992188 245.152344 246.515625 245.625 L 239.371094 252.769531 C 238.898438 253.246094 238.214844 253.371094 237.601562 253.101562 L 231.230469 250.269531 C 227.71875 252.429688 223.890625 254.019531 219.882812 254.972656 L 217.378906 261.476562 C 217.136719 262.101562 216.566406 262.496094 215.894531 262.496094 L 205.789062 262.496094 C 205.121094 262.496094 204.546875 262.101562 204.308594 261.476562 L 201.804688 254.972656 C 197.796875 254.015625 193.964844 252.429688 190.457031 250.269531 L 184.082031 253.101562 C 183.46875 253.371094 182.789062 253.246094 182.316406 252.769531 L 175.167969 245.625 C 174.695312 245.152344 174.570312 244.46875 174.839844 243.855469 L 177.671875 237.484375 C 175.507812 233.976562 173.921875 230.144531 172.96875 226.136719 L 166.464844 223.632812 C 165.839844 223.394531 165.445312 222.820312 165.445312 222.152344 L 165.445312 212.042969 C 165.445312 211.375 165.839844 210.804688 166.464844 210.5625 L 172.96875 208.058594 C 173.921875 204.050781 175.511719 200.222656 177.671875 196.710938 L 174.839844 190.339844 C 174.570312 189.726562 174.695312 189.042969 175.167969 188.570312 L 182.316406 181.421875 C 182.789062 180.949219 183.472656 180.824219 184.082031 181.09375 L 190.457031 183.925781 C 193.96875 181.765625 197.796875 180.175781 201.804688 179.222656 L 204.308594 172.71875 C 204.546875 172.09375 205.121094 171.699219 205.789062 171.699219 L 215.894531 171.699219 C 216.566406 171.699219 217.136719 172.09375 217.378906 172.71875 Z M 163.546875 137.527344 C 176.367188 137.527344 187.917969 135.890625 196.226562 133.246094 C 203.683594 130.875 208.300781 127.941406 208.300781 125.015625 C 208.300781 122.089844 203.683594 119.160156 196.226562 116.785156 C 187.917969 114.140625 176.367188 112.503906 163.546875 112.503906 C 150.726562 112.503906 139.175781 114.140625 130.867188 116.785156 C 123.40625 119.160156 118.792969 122.089844 118.792969 125.015625 C 118.792969 127.941406 123.40625 130.875 130.867188 133.246094 C 139.175781 135.890625 150.726562 137.527344 163.546875 137.527344 Z M 163.546875 203.796875 C 150.246094 203.796875 138.148438 202.0625 129.339844 199.257812 C 125.015625 197.882812 121.433594 196.203125 118.792969 194.285156 L 118.792969 216.792969 C 118.792969 219.71875 123.40625 222.652344 130.867188 225.023438 C 139.175781 227.667969 150.726562 229.304688 163.546875 229.304688 C 164.6875 229.304688 165.824219 229.292969 166.945312 229.265625 L 164.636719 228.378906 C 162.046875 227.382812 160.359375 224.925781 160.359375 222.152344 L 160.359375 212.046875 C 160.359375 209.273438 162.046875 206.8125 164.636719 205.816406 L 168.738281 204.238281 C 168.792969 204.058594 168.847656 203.882812 168.90625 203.703125 C 167.144531 203.765625 165.355469 203.796875 163.546875 203.796875 Z M 130.992188 206.578125 C 134.371094 206.578125 137.105469 209.316406 137.105469 212.691406 C 137.105469 216.066406 134.371094 218.804688 130.992188 218.804688 C 127.617188 218.804688 124.878906 216.066406 124.878906 212.691406 C 124.878906 209.3125 127.617188 206.578125 130.992188 206.578125 Z M 197.753906 168.667969 C 188.945312 171.46875 176.847656 173.203125 163.546875 173.203125 C 150.246094 173.203125 138.148438 171.46875 129.339844 168.667969 C 125.015625 167.289062 121.433594 165.609375 118.792969 163.691406 L 118.792969 186.203125 C 118.792969 189.128906 123.40625 192.058594 130.867188 194.433594 C 139.175781 197.078125 150.726562 198.714844 163.546875 198.714844 C 166.0625 198.714844 168.527344 198.648438 170.925781 198.527344 C 171.257812 197.816406 171.609375 197.117188 171.980469 196.421875 L 170.191406 192.402344 C 169.074219 189.882812 169.621094 186.925781 171.574219 184.976562 L 178.71875 177.828125 C 180.671875 175.878906 183.625 175.328125 186.144531 176.449219 L 190.167969 178.234375 C 192.660156 176.90625 195.28125 175.820312 197.984375 174.996094 L 199.5625 170.890625 C 200.558594 168.304688 203.015625 166.617188 205.789062 166.617188 L 208.300781 166.617188 L 208.300781 163.691406 C 205.660156 165.609375 202.074219 167.289062 197.753906 168.667969 Z M 130.992188 175.671875 C 134.371094 175.671875 137.105469 178.40625 137.105469 181.785156 C 137.105469 185.160156 134.371094 187.898438 130.992188 187.898438 C 127.617188 187.898438 124.878906 185.160156 124.878906 181.785156 C 124.878906 178.40625 127.617188 175.671875 130.992188 175.671875 Z M 208.300781 155.609375 C 208.300781 158.535156 203.683594 161.464844 196.226562 163.839844 C 187.917969 166.484375 176.367188 168.121094 163.546875 168.121094 C 150.726562 168.121094 139.175781 166.484375 130.867188 163.839844 C 123.40625 161.464844 118.792969 158.535156 118.792969 155.609375 L 118.792969 133.097656 C 121.433594 135.019531 125.015625 136.699219 129.339844 138.074219 C 138.148438 140.878906 150.246094 142.613281 163.546875 142.613281 C 176.847656 142.613281 188.945312 140.878906 197.753906 138.074219 C 202.074219 136.699219 205.660156 135.019531 208.300781 133.097656 Z M 130.992188 144.765625 C 127.617188 144.765625 124.878906 147.5 124.878906 150.878906 C 124.878906 154.253906 127.617188 156.988281 130.992188 156.988281 C 134.371094 156.988281 137.105469 154.253906 137.105469 150.878906 C 137.105469 147.5 134.371094 144.765625 130.992188 144.765625 Z M 203.753906 223.253906 L 196.445312 217.097656 L 203.753906 210.941406 C 204.824219 210.039062 204.960938 208.445312 204.0625 207.375 C 203.164062 206.304688 201.566406 206.167969 200.496094 207.066406 L 190.917969 215.136719 C 190.800781 215.234375 190.6875 215.347656 190.585938 215.46875 C 189.683594 216.539062 189.824219 218.132812 190.890625 219.035156 L 200.496094 227.128906 C 201.566406 228.027344 203.164062 227.890625 204.0625 226.820312 C 204.960938 225.75 204.824219 224.152344 203.753906 223.253906 Z M 221.1875 227.128906 L 230.792969 219.035156 C 231.859375 218.132812 232 216.539062 231.101562 215.46875 C 230.996094 215.347656 230.886719 215.234375 230.765625 215.136719 L 221.1875 207.066406 C 220.117188 206.167969 218.523438 206.304688 217.621094 207.375 C 216.722656 208.445312 216.859375 210.039062 217.929688 210.941406 L 225.238281 217.097656 L 217.929688 223.253906 C 216.863281 224.152344 216.722656 225.75 217.621094 226.820312 C 218.523438 227.890625 220.117188 228.027344 221.1875 227.128906 Z M 216.242188 227.441406 L 210.347656 205.441406 C 209.984375 204.089844 208.59375 203.285156 207.238281 203.644531 C 205.886719 204.007812 205.082031 205.398438 205.441406 206.753906 L 211.335938 228.75 C 211.699219 230.105469 213.089844 230.910156 214.445312 230.550781 C 215.800781 230.1875 216.605469 228.796875 216.242188 227.441406 Z M 210.84375 191.40625 C 196.652344 191.40625 185.148438 202.90625 185.148438 217.097656 C 185.148438 231.289062 196.652344 242.789062 210.84375 242.789062 C 225.03125 242.789062 236.535156 231.289062 236.535156 217.097656 C 236.535156 202.90625 225.03125 191.40625 210.84375 191.40625 Z M 210.84375 191.40625 " fill-opacity="1" fill-rule="evenodd"/></g></svg>