<svg xmlns="http://www.w3.org/2000/svg" xmlns:xlink="http://www.w3.org/1999/xlink" width="500" zoomAndPan="magnify" viewBox="0 0 375 374.999991" height="500" preserveAspectRatio="xMidYMid meet" version="1.0"><defs><clipPath id="99cf2de58f"><path d="M 125 112.5 L 196 112.5 L 196 262.5 L 125 262.5 Z M 125 112.5 " clip-rule="nonzero"/></clipPath><clipPath id="96edda4ed6"><path d="M 202 112.5 L 273 112.5 L 273 262.5 L 202 262.5 Z M 202 112.5 " clip-rule="nonzero"/></clipPath></defs><rect x="-37.5" width="450" fill="#ffffff" y="-37.499999" height="449.999989" fill-opacity="1"/><rect x="-37.5" width="450" fill="#ffffff" y="-37.499999" height="449.999989" fill-opacity="1"/><g clip-path="url(#99cf2de58f)"><path fill="#ceb15a" d="M 195.894531 130.730469 C 195.894531 117.847656 183.617188 112.5 177.042969 112.5 C 173.097656 112.5 165.257812 115.164062 160.964844 120.878906 C 158.859375 123.683594 157.910156 126.875 158.160156 130.25 C 154.246094 129.679688 147.890625 129.542969 144.019531 135.757812 C 141.234375 140.234375 140.945312 143.917969 141.246094 146.324219 C 137.1875 146.820312 129.941406 148.8125 127.148438 156.558594 C 125.042969 162.378906 125.410156 168.382812 127.195312 173.164062 C 127.199219 173.175781 127.199219 173.1875 127.203125 173.195312 C 127.601562 174.542969 128.3125 175.992188 129.347656 177.402344 C 129.359375 177.421875 129.375 177.441406 129.386719 177.460938 C 129.460938 177.5625 129.53125 177.660156 129.609375 177.757812 C 130.03125 178.347656 130.476562 178.902344 130.949219 179.398438 C 129.105469 180.898438 128.046875 183.0625 127.800781 187.035156 C 127.523438 191.496094 129.457031 196.878906 132.835938 199.648438 C 130.53125 202 128.503906 205.539062 129.003906 212.980469 C 129.460938 217.5625 132.027344 222.214844 135.703125 225.121094 C 137.636719 226.648438 139.785156 227.574219 141.964844 227.917969 C 142.105469 227.960938 142.253906 227.996094 142.410156 228.011719 C 142.457031 228.015625 142.519531 228.015625 142.570312 228.019531 C 142.632812 228.027344 142.695312 228.046875 142.757812 228.050781 C 143.128906 230.199219 144.320312 232.605469 145.710938 234.40625 C 147.992188 237.363281 150.917969 239.074219 154.097656 239.351562 C 155.03125 243.003906 157.125 248.476562 163.292969 249.21875 C 163.773438 252.679688 164.96875 255.550781 166.886719 257.78125 C 169.285156 260.5625 172.691406 262.179688 176.75 262.457031 C 177.15625 262.488281 177.566406 262.5 177.976562 262.5 C 182.824219 262.5 187.832031 260.574219 191.296875 257.320312 C 194.28125 254.515625 195.910156 250.902344 195.886719 247.160156 L 195.886719 166.988281 C 195.886719 166.988281 195.886719 166.984375 195.886719 166.984375 L 195.886719 130.941406 C 195.886719 130.867188 195.894531 130.804688 195.894531 130.730469 Z M 191.5625 161.75 C 189.777344 160.707031 187.601562 159.929688 185.347656 159.628906 C 179.257812 158.816406 174.074219 161.59375 171.082031 167.324219 C 167.652344 174.542969 170.363281 179.984375 172.285156 182.585938 C 174.773438 185.957031 178.574219 188.207031 181.632812 188.207031 C 181.914062 188.207031 182.1875 188.1875 182.457031 188.148438 C 183.636719 187.976562 184.457031 186.878906 184.285156 185.695312 C 184.113281 184.515625 183.011719 183.691406 181.832031 183.867188 C 180.796875 184.019531 177.863281 182.863281 175.761719 180.015625 C 174.117188 177.789062 172.648438 174.101562 174.949219 169.253906 C 177.554688 164.273438 181.539062 163.574219 184.417969 163.871094 C 188.453125 164.285156 191.195312 166.558594 191.5625 167.390625 L 191.5625 247.171875 C 191.585938 250.429688 189.820312 252.773438 188.335938 254.167969 C 185.429688 256.902344 181.097656 258.417969 177.046875 258.144531 C 175.039062 258.007812 172.21875 257.339844 170.164062 254.960938 C 167.988281 252.429688 167.054688 248.378906 167.457031 243.339844 C 167.75 241.027344 170.636719 236.441406 174.492188 234.511719 C 176.703125 233.410156 178.816406 233.410156 180.765625 234.519531 C 181.804688 235.113281 183.125 234.746094 183.714844 233.710938 C 184.304688 232.671875 183.941406 231.351562 182.902344 230.761719 C 179.664062 228.921875 176.085938 228.882812 172.554688 230.648438 C 172.480469 230.6875 172.410156 230.738281 172.332031 230.78125 C 171.402344 229.824219 170 229.171875 168.246094 228.96875 C 165.289062 228.632812 162.03125 229.632812 161.496094 232.203125 C 161.253906 233.371094 162.007812 234.515625 163.175781 234.757812 C 164.199219 234.972656 165.207031 234.417969 165.605469 233.488281 C 166.019531 233.300781 167.082031 233.109375 168.160156 233.328125 C 168.347656 233.367188 168.507812 233.414062 168.644531 233.460938 C 165.632812 236.296875 163.515625 240.0625 163.15625 242.890625 C 163.105469 243.539062 163.085938 244.15625 163.070312 244.773438 C 159.816406 243.941406 158.785156 240.636719 157.925781 236.730469 L 157.515625 234.871094 L 155.617188 235.039062 C 152.863281 235.292969 150.832031 233.71875 149.621094 232.355469 C 148.246094 230.804688 147.476562 229.054688 147.144531 227.863281 C 153.230469 226.964844 160.730469 223.183594 162.707031 212.855469 C 163.382812 212.613281 164.058594 212.320312 164.734375 211.910156 C 164.769531 211.886719 164.796875 211.859375 164.832031 211.835938 C 167.304688 210.453125 169.890625 208.214844 171.628906 205.34375 C 173.65625 201.992188 174.195312 198.386719 173.179688 194.925781 C 172.839844 193.777344 171.640625 193.121094 170.496094 193.457031 C 169.351562 193.792969 168.695312 194.996094 169.03125 196.140625 C 169.703125 198.441406 169.335938 200.785156 167.929688 203.105469 C 166.527344 205.425781 164.28125 207.304688 162.304688 208.304688 C 162.253906 208.332031 162.203125 208.355469 162.152344 208.378906 C 161.515625 208.691406 160.910156 208.910156 160.375 209.019531 C 155.753906 209.898438 151.128906 205.476562 151.074219 205.421875 C 150.222656 204.59375 148.859375 204.601562 148.019531 205.453125 C 147.183594 206.304688 147.195312 207.675781 148.046875 208.511719 C 148.296875 208.757812 152.671875 212.972656 158.128906 213.453125 C 156.359375 219.902344 151.78125 222.34375 148.085938 223.246094 L 144.644531 223.710938 C 144.429688 223.738281 144.226562 223.738281 144.019531 223.75 C 143.527344 223.753906 143.171875 223.734375 142.980469 223.71875 C 142.960938 223.71875 142.9375 223.71875 142.917969 223.714844 C 142.882812 223.710938 142.855469 223.710938 142.839844 223.707031 C 142.832031 223.707031 142.828125 223.707031 142.820312 223.707031 C 140.984375 223.472656 139.441406 222.566406 138.382812 221.726562 C 135.636719 219.558594 133.644531 215.957031 133.3125 212.621094 C 132.808594 205.15625 135.203125 203.164062 137.738281 201.058594 L 141.300781 198.085938 L 137.082031 197.097656 C 134.359375 196.460938 131.851562 191.515625 132.117188 187.300781 C 132.332031 183.804688 133.121094 182.882812 134.625 182.117188 C 136.859375 183.433594 139.597656 184.453125 142.898438 184.90625 C 143.660156 185.011719 144.398438 185.058594 145.121094 185.058594 C 147.605469 185.058594 149.835938 184.472656 151.78125 183.621094 C 152.773438 184.210938 154.820312 185.957031 154.699219 188.328125 C 154.515625 191.917969 152 194.640625 151.9375 194.703125 C 151.117188 195.566406 151.140625 196.929688 152 197.757812 C 152.417969 198.160156 152.960938 198.359375 153.5 198.359375 C 154.066406 198.359375 154.632812 198.140625 155.054688 197.699219 C 155.207031 197.542969 158.746094 193.8125 159.015625 188.550781 C 159.171875 185.523438 157.628906 182.992188 155.796875 181.289062 C 158.585938 179.222656 160.210938 177.039062 160.34375 176.855469 C 161.046875 175.886719 160.832031 174.535156 159.867188 173.835938 C 158.898438 173.132812 157.546875 173.347656 156.847656 174.3125 C 156.8125 174.363281 154.484375 177.492188 150.679688 179.363281 C 150.675781 179.363281 150.675781 179.363281 150.675781 179.363281 C 148.65625 180.355469 146.226562 181 143.488281 180.621094 C 141.289062 180.320312 139.445312 179.71875 137.898438 178.957031 L 136.378906 178.109375 C 134.882812 177.148438 133.75 176.035156 132.929688 174.953125 C 130.355469 171.128906 128.847656 164.566406 131.210938 158.027344 C 133.578125 151.464844 140.671875 150.605469 143.097656 150.5 L 149.492188 157.105469 C 148.105469 157.90625 146.453125 158.394531 144.484375 158.484375 C 143.289062 158.539062 142.367188 159.550781 142.421875 160.742188 C 142.476562 161.902344 143.433594 162.804688 144.582031 162.804688 C 144.613281 162.804688 144.648438 162.804688 144.679688 162.804688 C 148.90625 162.609375 152.277344 161.140625 154.703125 158.441406 C 158.929688 153.734375 158.570312 147.011719 158.550781 146.730469 C 158.480469 145.539062 157.460938 144.636719 156.261719 144.703125 C 155.070312 144.777344 154.164062 145.804688 154.238281 146.996094 C 154.238281 147.039062 154.402344 150.871094 152.558594 154.054688 L 145.832031 147.109375 C 145.507812 146.273438 144.609375 142.992188 147.6875 138.039062 C 150.449219 133.605469 155.066406 134.046875 159.179688 134.808594 C 159.4375 134.855469 159.679688 134.898438 159.902344 134.9375 L 165.179688 139.46875 C 165.585938 139.820312 166.085938 139.992188 166.585938 139.992188 C 167.195312 139.992188 167.800781 139.738281 168.226562 139.238281 C 169.003906 138.332031 168.902344 136.96875 167.996094 136.191406 L 162.765625 131.695312 C 162.046875 128.675781 162.59375 125.910156 164.421875 123.472656 C 167.746094 119.046875 174.304688 116.824219 177.042969 116.824219 C 180.917969 116.824219 191.539062 120.113281 191.566406 130.691406 C 191.566406 130.703125 191.566406 130.714844 191.566406 130.726562 L 191.566406 130.886719 C 191.496094 140.375 185.332031 142.621094 184.582031 142.851562 C 183.621094 142.796875 182.792969 143.410156 182.488281 144.328125 C 182.109375 145.460938 182.71875 146.6875 183.851562 147.0625 C 185.789062 147.707031 188.96875 145.480469 189.324219 145.226562 C 189.988281 144.75 190.773438 144.082031 191.5625 143.210938 Z M 191.5625 161.75 " fill-opacity="1" fill-rule="nonzero"/></g><g clip-path="url(#96edda4ed6)"><path fill="#ceb15a" d="M 271.046875 187.074219 L 271.035156 186.925781 C 270.597656 183.074219 269.136719 180.851562 267.371094 179.414062 C 271.902344 174.671875 274.382812 165.394531 271.191406 156.558594 C 268.394531 148.8125 261.152344 146.820312 257.089844 146.324219 C 257.390625 143.917969 257.101562 140.230469 254.316406 135.757812 C 250.460938 129.5625 244.132812 129.679688 240.21875 130.242188 C 240.578125 126.566406 239.640625 123.152344 237.449219 120.234375 C 233.460938 114.921875 226.277344 112.5 221.292969 112.5 C 214.722656 112.5 202.445312 117.847656 202.445312 130.730469 C 202.445312 130.796875 202.449219 130.855469 202.449219 130.917969 L 202.449219 247.144531 C 202.425781 250.902344 204.054688 254.515625 207.039062 257.320312 C 210.503906 260.574219 215.511719 262.5 220.359375 262.5 C 220.769531 262.5 221.179688 262.484375 221.585938 262.457031 C 229.003906 261.949219 233.917969 257.046875 235.035156 249.222656 C 241.183594 248.484375 243.289062 243.050781 244.226562 239.398438 C 247.363281 239.277344 250.144531 238.109375 252.1875 236.023438 C 254.253906 233.917969 255.472656 230.949219 255.621094 227.792969 C 263.777344 226.617188 268.652344 221.828125 269.417969 214.136719 C 269.996094 208.296875 268.597656 203.425781 265.261719 199.617188 C 268.488281 197.359375 271.34375 193.769531 271.046875 187.074219 Z M 210.652344 250.035156 C 209.550781 250.035156 208.65625 249.140625 208.65625 248.042969 C 208.65625 246.941406 209.550781 246.046875 210.652344 246.046875 C 211.75 246.046875 212.644531 246.941406 212.644531 248.042969 C 212.644531 249.140625 211.75 250.035156 210.652344 250.035156 Z M 209.703125 251.800781 L 209.703125 253.871094 C 208.71875 252.878906 207.679688 251.488281 207.144531 249.695312 C 207.636719 250.734375 208.570312 251.511719 209.703125 251.800781 Z M 260.75 197.285156 L 257.871094 198.785156 L 260.363281 200.863281 C 262.753906 202.855469 265.84375 206.355469 265.117188 213.710938 C 264.492188 219.9375 260.617188 223.207031 253.261719 223.695312 L 251.011719 223.84375 L 251.253906 226.085938 C 251.546875 228.742188 250.742188 231.328125 249.101562 232.996094 C 247.886719 234.234375 246.265625 234.933594 244.34375 235.058594 L 243.660156 212.503906 L 249.9375 206.804688 C 250.738281 207.347656 251.703125 207.667969 252.742188 207.667969 C 255.503906 207.667969 257.75 205.421875 257.75 202.664062 C 257.75 199.902344 255.503906 197.65625 252.742188 197.65625 C 249.984375 197.65625 247.738281 199.902344 247.738281 202.664062 C 247.738281 203.699219 248.054688 204.664062 248.597656 205.460938 L 241.742188 211.6875 L 242.449219 235.015625 L 240.820312 234.867188 L 240.410156 236.730469 C 239.460938 241.046875 238.296875 244.628906 234.164062 244.957031 L 234.164062 225.4375 L 231.425781 222.871094 L 231.425781 212.957031 L 237.441406 207.023438 C 238.074219 207.46875 238.839844 207.730469 239.664062 207.730469 C 241.808594 207.730469 243.554688 205.988281 243.554688 203.84375 C 243.554688 201.699219 241.808594 199.953125 239.664062 199.953125 C 237.523438 199.953125 235.777344 201.699219 235.777344 203.84375 C 235.777344 204.472656 235.941406 205.058594 236.207031 205.582031 L 229.53125 212.164062 L 229.53125 221.09375 L 225.949219 217.730469 L 225.949219 204.199219 C 227.632812 203.769531 228.890625 202.253906 228.890625 200.4375 C 228.890625 198.296875 227.144531 196.550781 225 196.550781 C 222.859375 196.550781 221.113281 198.296875 221.113281 200.4375 C 221.113281 202.253906 222.371094 203.769531 224.054688 204.199219 L 224.054688 218.550781 L 232.269531 226.257812 L 232.269531 245.125 C 232.074219 245.203125 231.890625 245.316406 231.726562 245.453125 C 231.695312 245.476562 231.660156 245.496094 231.632812 245.523438 C 231.625 245.53125 231.617188 245.542969 231.609375 245.546875 C 231.3125 245.828125 231.09375 246.1875 230.992188 246.597656 C 230.980469 246.644531 230.976562 246.691406 230.96875 246.738281 C 230.953125 246.828125 230.929688 246.917969 230.925781 247.011719 C 230.636719 251.835938 228.816406 255.222656 225.699219 256.921875 L 221.894531 253.40625 L 221.894531 244.089844 C 223.578125 243.664062 224.835938 242.148438 224.835938 240.332031 C 224.835938 238.1875 223.089844 236.445312 220.945312 236.445312 C 218.800781 236.445312 217.054688 238.1875 217.054688 240.332031 C 217.054688 242.148438 218.3125 243.664062 219.996094 244.089844 L 219.996094 254.238281 L 223.761719 257.710938 C 222.992188 257.933594 222.171875 258.085938 221.289062 258.144531 C 217.925781 258.371094 214.375 257.347656 211.597656 255.429688 L 211.597656 251.800781 C 213.28125 251.375 214.539062 249.855469 214.539062 248.042969 C 214.539062 245.898438 212.792969 244.152344 210.648438 244.152344 C 208.644531 244.152344 207.003906 245.6875 206.800781 247.640625 C 206.792969 247.480469 206.769531 247.324219 206.773438 247.160156 L 206.773438 228.6875 L 208.496094 230.550781 L 219.078125 230.550781 C 219.523438 232.308594 221.105469 233.621094 223 233.621094 C 225.238281 233.621094 227.058594 231.800781 227.058594 229.5625 C 227.058594 227.328125 225.238281 225.507812 223 225.507812 C 221.105469 225.507812 219.523438 226.816406 219.078125 228.574219 L 209.359375 228.574219 L 206.773438 225.773438 L 206.773438 213.808594 L 210.378906 213.808594 C 210.820312 215.753906 212.558594 217.214844 214.636719 217.214844 C 217.046875 217.214844 219.007812 215.253906 219.007812 212.84375 C 219.007812 210.429688 217.046875 208.46875 214.636719 208.46875 C 212.558594 208.46875 210.820312 209.929688 210.378906 211.875 L 206.773438 211.875 L 206.773438 183.515625 C 208.972656 183.5 211.0625 183.496094 213.253906 183.496094 L 213.253906 193.054688 C 212.019531 193.335938 211.089844 194.4375 211.089844 195.757812 C 211.089844 197.289062 212.335938 198.53125 213.867188 198.53125 C 215.398438 198.53125 216.640625 197.289062 216.640625 195.757812 C 216.640625 194.4375 215.714844 193.335938 214.480469 193.054688 L 214.480469 183.914062 C 216.707031 186.15625 218.875 188.398438 221.054688 190.65625 L 221.898438 191.527344 L 222.777344 190.675781 L 221.9375 189.804688 C 220.714844 188.539062 219.496094 187.277344 218.269531 186.019531 L 227.824219 186.019531 C 228.105469 187.253906 229.207031 188.179688 230.527344 188.179688 C 232.058594 188.179688 233.300781 186.9375 233.300781 185.40625 C 233.300781 183.875 232.058594 182.628906 230.527344 182.628906 C 229.207031 182.628906 228.105469 183.558594 227.824219 184.792969 L 217.0625 184.792969 C 216.296875 184.011719 215.535156 183.230469 214.753906 182.449219 L 214.574219 182.269531 L 214.320312 182.269531 C 211.722656 182.269531 209.328125 182.273438 206.773438 182.289062 L 206.773438 179.28125 C 213.820312 179.222656 220.886719 179.242188 227.824219 179.34375 C 228.101562 180.585938 229.203125 181.515625 230.527344 181.515625 C 232.058594 181.515625 233.304688 180.269531 233.304688 178.738281 C 233.304688 177.207031 232.058594 175.964844 230.527344 175.964844 C 229.210938 175.964844 228.109375 176.886719 227.828125 178.117188 C 220.890625 178.019531 213.820312 178 206.773438 178.054688 L 206.773438 172.765625 L 208.535156 174.671875 L 215.101562 174.671875 C 215.378906 175.761719 216.359375 176.578125 217.535156 176.578125 C 218.921875 176.578125 220.050781 175.445312 220.050781 174.058594 C 220.050781 172.671875 218.921875 171.542969 217.535156 171.542969 C 216.359375 171.542969 215.378906 172.355469 215.101562 173.445312 L 209.070312 173.445312 L 206.773438 170.957031 L 206.773438 164.089844 L 209.8125 162.65625 L 221.777344 167.097656 L 237.746094 159.566406 C 238.15625 160.089844 238.699219 160.496094 239.34375 160.726562 C 239.734375 160.871094 240.140625 160.9375 240.546875 160.9375 C 241.066406 160.9375 241.582031 160.824219 242.0625 160.597656 C 243.839844 159.761719 244.601562 157.632812 243.765625 155.859375 C 243.359375 155 242.644531 154.347656 241.746094 154.027344 C 240.855469 153.703125 239.886719 153.75 239.027344 154.15625 C 238.164062 154.5625 237.515625 155.277344 237.195312 156.175781 C 236.964844 156.816406 236.929688 157.496094 237.074219 158.144531 L 221.703125 165.394531 L 211.804688 161.714844 L 221.144531 157.308594 L 223.824219 149.722656 L 235.933594 144.011719 C 236.613281 144.878906 237.640625 145.390625 238.71875 145.390625 C 239.230469 145.390625 239.742188 145.28125 240.230469 145.050781 C 242.007812 144.210938 242.769531 142.085938 241.933594 140.3125 L 241.933594 140.308594 C 241.097656 138.535156 238.96875 137.773438 237.195312 138.609375 C 235.664062 139.332031 234.894531 141.011719 235.242188 142.597656 L 222.5625 148.578125 L 219.878906 156.167969 L 206.773438 162.351562 L 206.773438 143.210938 C 207.566406 144.082031 208.347656 144.75 209.011719 145.226562 C 209.367188 145.480469 212.535156 147.710938 214.484375 147.0625 C 215.617188 146.6875 216.226562 145.460938 215.851562 144.328125 C 215.550781 143.421875 214.707031 142.851562 213.800781 142.851562 C 213.785156 142.851562 213.769531 142.851562 213.753906 142.851562 C 213.003906 142.621094 206.835938 140.375 206.773438 130.867188 L 206.773438 130.726562 C 206.773438 130.714844 206.769531 130.703125 206.769531 130.695312 C 206.792969 121.09375 215.523438 117.507812 220.039062 116.921875 L 218.648438 118.207031 L 218.648438 128.570312 C 216.945312 128.933594 215.660156 130.449219 215.660156 132.261719 C 215.660156 134.34375 217.351562 136.035156 219.433594 136.035156 C 221.515625 136.035156 223.210938 134.34375 223.210938 132.261719 C 223.210938 130.449219 221.925781 128.933594 220.21875 128.570312 L 220.21875 118.894531 L 222.394531 116.890625 C 226.332031 117.214844 231.289062 119.226562 233.992188 122.828125 C 235.890625 125.355469 236.410156 128.347656 235.570312 131.722656 L 233.0625 134.160156 C 232.207031 134.992188 232.1875 136.363281 233.019531 137.21875 C 233.441406 137.652344 234.007812 137.875 234.570312 137.875 C 235.113281 137.875 235.65625 137.667969 236.078125 137.261719 L 238.472656 134.929688 C 238.6875 134.894531 238.910156 134.855469 239.15625 134.808594 C 243.269531 134.046875 247.886719 133.609375 250.648438 138.042969 C 253.640625 142.851562 252.875 146.074219 252.546875 147.003906 L 250.324219 148.882812 C 249.410156 149.652344 249.296875 151.015625 250.066406 151.929688 C 250.496094 152.433594 251.105469 152.695312 251.71875 152.695312 C 252.210938 152.695312 252.707031 152.527344 253.113281 152.183594 L 255.113281 150.496094 C 257.367188 150.570312 264.398438 151.335938 266.953125 157.636719 L 248.222656 157.636719 L 237.617188 168.558594 L 237.617188 179.605469 C 235.757812 180.027344 234.359375 181.6875 234.359375 183.671875 C 234.359375 185.976562 236.238281 187.851562 238.542969 187.851562 C 240.84375 187.851562 242.722656 185.976562 242.722656 183.671875 C 242.722656 181.6875 241.324219 180.027344 239.464844 179.605469 L 239.464844 169.308594 L 249.003906 159.484375 L 267.582031 159.484375 C 268.90625 164.28125 268.253906 168.976562 266.738281 172.480469 L 251.691406 172.480469 L 245.546875 179.574219 L 245.546875 186.355469 C 243.6875 186.78125 242.289062 188.4375 242.289062 190.425781 C 242.289062 192.730469 244.164062 194.605469 246.46875 194.605469 C 248.773438 194.605469 250.648438 192.730469 250.648438 190.425781 C 250.648438 188.4375 249.253906 186.78125 247.394531 186.355469 L 247.394531 180.261719 L 252.53125 174.328125 L 265.796875 174.328125 C 264.953125 175.734375 263.972656 176.828125 262.957031 177.511719 L 256.804688 177.511719 C 255.609375 177.511719 254.640625 178.480469 254.640625 179.675781 C 254.640625 180.867188 255.609375 181.835938 256.804688 181.835938 L 263.101562 181.835938 C 265.1875 182.839844 266.34375 184.0625 266.734375 187.339844 C 266.957031 192.90625 264.609375 195.273438 260.75 197.285156 Z M 249.632812 202.664062 C 249.632812 200.945312 251.027344 199.550781 252.742188 199.550781 C 254.460938 199.550781 255.855469 200.945312 255.855469 202.664062 C 255.855469 204.378906 254.460938 205.773438 252.742188 205.773438 C 251.027344 205.773438 249.632812 204.378906 249.632812 202.664062 Z M 237.671875 203.84375 C 237.671875 202.742188 238.566406 201.847656 239.667969 201.847656 C 240.765625 201.847656 241.660156 202.742188 241.660156 203.84375 C 241.660156 204.945312 240.765625 205.835938 239.667969 205.835938 C 238.566406 205.835938 237.671875 204.945312 237.671875 203.84375 Z M 225.003906 202.433594 C 223.902344 202.433594 223.007812 201.539062 223.007812 200.4375 C 223.007812 199.339844 223.902344 198.445312 225.003906 198.445312 C 226.101562 198.445312 226.996094 199.339844 226.996094 200.4375 C 226.996094 201.539062 226.101562 202.433594 225.003906 202.433594 Z M 220.945312 242.328125 C 219.84375 242.328125 218.953125 241.433594 218.953125 240.332031 C 218.953125 239.230469 219.84375 238.339844 220.945312 238.339844 C 222.046875 238.339844 222.941406 239.230469 222.941406 240.332031 C 222.941406 241.433594 222.046875 242.328125 220.945312 242.328125 Z M 220.921875 229.566406 C 220.921875 228.417969 221.851562 227.484375 223 227.484375 C 224.148438 227.484375 225.082031 228.417969 225.082031 229.566406 C 225.082031 230.710938 224.148438 231.644531 223 231.644531 C 221.855469 231.644531 220.921875 230.710938 220.921875 229.566406 Z M 212.195312 212.84375 C 212.195312 211.496094 213.289062 210.398438 214.636719 210.398438 C 215.984375 210.398438 217.078125 211.496094 217.078125 212.84375 C 217.078125 214.191406 215.984375 215.285156 214.636719 215.285156 C 213.289062 215.285156 212.195312 214.191406 212.195312 212.84375 Z M 213.867188 194.207031 C 214.722656 194.207031 215.417969 194.90625 215.417969 195.757812 C 215.417969 196.613281 214.722656 197.308594 213.867188 197.308594 C 213.011719 197.308594 212.316406 196.613281 212.316406 195.757812 C 212.316406 194.90625 213.011719 194.207031 213.867188 194.207031 Z M 228.976562 185.40625 C 228.976562 184.550781 229.671875 183.855469 230.527344 183.855469 C 231.382812 183.855469 232.078125 184.550781 232.078125 185.40625 C 232.078125 186.261719 231.382812 186.957031 230.527344 186.957031 C 229.671875 186.957031 228.976562 186.261719 228.976562 185.40625 Z M 228.976562 178.738281 C 228.976562 177.886719 229.671875 177.191406 230.527344 177.191406 C 231.382812 177.191406 232.078125 177.886719 232.078125 178.738281 C 232.078125 179.59375 231.382812 180.289062 230.527344 180.289062 C 229.671875 180.289062 228.976562 179.59375 228.976562 178.738281 Z M 216.242188 174.058594 C 216.242188 173.347656 216.824219 172.769531 217.535156 172.769531 C 218.246094 172.769531 218.828125 173.347656 218.828125 174.058594 C 218.828125 174.769531 218.246094 175.351562 217.535156 175.351562 C 216.824219 175.351562 216.242188 174.773438 216.242188 174.058594 Z M 238.675781 156.707031 C 238.851562 156.207031 239.21875 155.804688 239.699219 155.578125 C 239.96875 155.453125 240.253906 155.386719 240.542969 155.386719 C 240.769531 155.386719 240.996094 155.425781 241.21875 155.507812 C 241.71875 155.6875 242.117188 156.050781 242.34375 156.527344 C 242.8125 157.519531 242.382812 158.707031 241.394531 159.175781 C 240.914062 159.398438 240.375 159.429688 239.875 159.246094 C 239.375 159.070312 238.972656 158.707031 238.746094 158.222656 C 238.519531 157.746094 238.492188 157.207031 238.675781 156.707031 Z M 237.863281 140.03125 C 238.136719 139.902344 238.425781 139.84375 238.710938 139.84375 C 239.457031 139.84375 240.171875 140.261719 240.511719 140.980469 C 240.980469 141.972656 240.554688 143.160156 239.5625 143.628906 C 238.570312 144.09375 237.382812 143.667969 236.914062 142.679688 C 236.449219 141.6875 236.875 140.5 237.863281 140.03125 Z M 219.433594 130.058594 C 220.648438 130.058594 221.636719 131.046875 221.636719 132.261719 C 221.636719 133.476562 220.648438 134.464844 219.433594 134.464844 C 218.21875 134.464844 217.230469 133.476562 217.230469 132.261719 C 217.230469 131.046875 218.21875 130.058594 219.433594 130.058594 Z M 238.539062 181.339844 C 239.828125 181.339844 240.875 182.386719 240.875 183.671875 C 240.875 184.960938 239.828125 186.007812 238.539062 186.007812 C 237.253906 186.007812 236.207031 184.960938 236.207031 183.671875 C 236.207031 182.386719 237.253906 181.339844 238.539062 181.339844 Z M 246.46875 188.089844 C 247.753906 188.089844 248.800781 189.136719 248.800781 190.425781 C 248.800781 191.710938 247.753906 192.757812 246.46875 192.757812 C 245.183594 192.757812 244.136719 191.710938 244.136719 190.425781 C 244.136719 189.136719 245.183594 188.089844 246.46875 188.089844 Z M 246.46875 188.089844 " fill-opacity="1" fill-rule="nonzero"/></g></svg>